<mxfile host="app.diagrams.net" agent="Mozilla/5.0 (Windows NT 10.0; Win64; x64) AppleWebKit/537.36 (KHTML, like Gecko) Chrome/125.0.0.0 Safari/537.36" version="24.7.6">
  <diagram id="C5RBs43oDa-KdzZeNtuy" name="Page-1">
    <mxGraphModel dx="1090" dy="679" grid="1" gridSize="10" guides="1" tooltips="1" connect="1" arrows="1" fold="1" page="1" pageScale="1" pageWidth="827" pageHeight="1169" math="0" shadow="0">
      <root>
        <mxCell id="WIyWlLk6GJQsqaUBKTNV-0" />
        <mxCell id="WIyWlLk6GJQsqaUBKTNV-1" parent="WIyWlLk6GJQsqaUBKTNV-0" />
        <mxCell id="XWS5cyPxn0b6OnyD6pv9-0" value="CreditDefaultSwap" style="swimlane;fontStyle=3;align=center;verticalAlign=top;childLayout=stackLayout;horizontal=1;startSize=26;horizontalStack=0;resizeParent=1;resizeLast=0;collapsible=1;marginBottom=0;rounded=0;shadow=0;strokeWidth=1;fillColor=#dae8fc;strokeColor=#6c8ebf;gradientColor=#7ea6e0;" parent="WIyWlLk6GJQsqaUBKTNV-1" vertex="1">
          <mxGeometry x="220" y="140" width="170" height="600" as="geometry">
            <mxRectangle x="220" y="120" width="160" height="26" as="alternateBounds" />
          </mxGeometry>
        </mxCell>
        <mxCell id="XWS5cyPxn0b6OnyD6pv9-1" value="__init__" style="text;align=center;verticalAlign=top;spacingLeft=4;spacingRight=4;overflow=hidden;rotatable=0;points=[[0,0.5],[1,0.5]];portConstraint=eastwest;fontFamily=Lucida Console;fontStyle=1" parent="XWS5cyPxn0b6OnyD6pv9-0" vertex="1">
          <mxGeometry y="26" width="170" height="26" as="geometry" />
        </mxCell>
        <mxCell id="XWS5cyPxn0b6OnyD6pv9-2" value="self.nominal" style="text;align=left;verticalAlign=top;spacingLeft=4;spacingRight=4;overflow=hidden;rotatable=0;points=[[0,0.5],[1,0.5]];portConstraint=eastwest;fontFamily=Lucida Console;fontStyle=1" parent="XWS5cyPxn0b6OnyD6pv9-0" vertex="1">
          <mxGeometry y="52" width="170" height="26" as="geometry" />
        </mxCell>
        <mxCell id="XWS5cyPxn0b6OnyD6pv9-4" value="self.payment_dates" style="text;align=left;verticalAlign=top;spacingLeft=4;spacingRight=4;overflow=hidden;rotatable=0;points=[[0,0.5],[1,0.5]];portConstraint=eastwest;rounded=0;shadow=0;html=0;fontStyle=1;fontFamily=Lucida Console;" parent="XWS5cyPxn0b6OnyD6pv9-0" vertex="1">
          <mxGeometry y="78" width="170" height="26" as="geometry" />
        </mxCell>
        <mxCell id="9kKB5E8LDzVK6SuMPjvg-2" value="self.spread" style="text;align=left;verticalAlign=top;spacingLeft=4;spacingRight=4;overflow=hidden;rotatable=0;points=[[0,0.5],[1,0.5]];portConstraint=eastwest;rounded=0;shadow=0;html=0;fontStyle=1;fontFamily=Lucida Console;" vertex="1" parent="XWS5cyPxn0b6OnyD6pv9-0">
          <mxGeometry y="104" width="170" height="26" as="geometry" />
        </mxCell>
        <mxCell id="XWS5cyPxn0b6OnyD6pv9-5" value="self.side" style="text;align=left;verticalAlign=top;spacingLeft=4;spacingRight=4;overflow=hidden;rotatable=0;points=[[0,0.5],[1,0.5]];portConstraint=eastwest;rounded=0;shadow=0;html=0;fontStyle=1;fontFamily=Lucida Console;" parent="XWS5cyPxn0b6OnyD6pv9-0" vertex="1">
          <mxGeometry y="130" width="170" height="26" as="geometry" />
        </mxCell>
        <mxCell id="9kKB5E8LDzVK6SuMPjvg-3" value="self.recovery" style="text;align=left;verticalAlign=top;spacingLeft=4;spacingRight=4;overflow=hidden;rotatable=0;points=[[0,0.5],[1,0.5]];portConstraint=eastwest;rounded=0;shadow=0;html=0;fontStyle=1;fontFamily=Lucida Console;" vertex="1" parent="XWS5cyPxn0b6OnyD6pv9-0">
          <mxGeometry y="156" width="170" height="26" as="geometry" />
        </mxCell>
        <mxCell id="XWS5cyPxn0b6OnyD6pv9-6" value="" style="line;html=1;strokeWidth=1;align=left;verticalAlign=middle;spacingTop=-1;spacingLeft=3;spacingRight=3;rotatable=0;labelPosition=right;points=[];portConstraint=eastwest;" parent="XWS5cyPxn0b6OnyD6pv9-0" vertex="1">
          <mxGeometry y="182" width="170" height="16" as="geometry" />
        </mxCell>
        <mxCell id="XWS5cyPxn0b6OnyD6pv9-7" value="&lt;font face=&quot;Lucida Console&quot;&gt;&lt;b&gt;npv_premium_leg&lt;/b&gt;&lt;/font&gt;&lt;br&gt;&lt;br&gt;&lt;font style=&quot;&quot; face=&quot;Helvetica&quot;&gt;calculate the NPV of&lt;br&gt;the premium leg&lt;/font&gt;" style="shape=ext;margin=3;double=1;whiteSpace=wrap;html=1;align=center;" parent="XWS5cyPxn0b6OnyD6pv9-0" vertex="1">
          <mxGeometry y="198" width="170" height="82" as="geometry" />
        </mxCell>
        <mxCell id="XWS5cyPxn0b6OnyD6pv9-8" value="&lt;b&gt;&lt;font face=&quot;Lucida Console&quot;&gt;npv_default_leg&lt;br&gt;&lt;/font&gt;&lt;/b&gt;&lt;br&gt;calculate the NPV of&lt;br&gt;the default leg" style="shape=ext;margin=3;double=1;whiteSpace=wrap;html=1;align=center;" parent="XWS5cyPxn0b6OnyD6pv9-0" vertex="1">
          <mxGeometry y="280" width="170" height="90" as="geometry" />
        </mxCell>
        <mxCell id="XWS5cyPxn0b6OnyD6pv9-9" value="&lt;b&gt;&lt;font face=&quot;Lucida Console&quot;&gt;npv&lt;br&gt;&lt;/font&gt;&lt;/b&gt;&lt;br&gt;calculate the NPV of&lt;br&gt;the swap according to the side of the contract" style="shape=ext;margin=3;double=1;whiteSpace=wrap;html=1;align=center;" parent="XWS5cyPxn0b6OnyD6pv9-0" vertex="1">
          <mxGeometry y="370" width="170" height="110" as="geometry" />
        </mxCell>
        <mxCell id="9kKB5E8LDzVK6SuMPjvg-9" value="&lt;b&gt;&lt;font face=&quot;Lucida Console&quot;&gt;breakeven_rate&lt;/font&gt;&lt;/b&gt;&lt;br&gt;&lt;div&gt;&lt;br&gt;compute the breakeven rate&lt;/div&gt;" style="shape=ext;margin=3;double=1;whiteSpace=wrap;html=1;align=center;" vertex="1" parent="XWS5cyPxn0b6OnyD6pv9-0">
          <mxGeometry y="480" width="170" height="120" as="geometry" />
        </mxCell>
        <mxCell id="9kKB5E8LDzVK6SuMPjvg-7" style="edgeStyle=orthogonalEdgeStyle;rounded=0;orthogonalLoop=1;jettySize=auto;html=1;entryX=1;entryY=0.5;entryDx=0;entryDy=0;" edge="1" parent="WIyWlLk6GJQsqaUBKTNV-1" source="XWS5cyPxn0b6OnyD6pv9-10" target="XWS5cyPxn0b6OnyD6pv9-4">
          <mxGeometry relative="1" as="geometry">
            <Array as="points">
              <mxPoint x="430" y="136" />
              <mxPoint x="430" y="231" />
            </Array>
          </mxGeometry>
        </mxCell>
        <mxCell id="XWS5cyPxn0b6OnyD6pv9-10" value="maturity" style="swimlane;fontStyle=0;align=center;verticalAlign=top;childLayout=stackLayout;horizontal=1;startSize=26;horizontalStack=0;resizeParent=1;resizeLast=0;collapsible=1;marginBottom=0;rounded=0;shadow=0;strokeWidth=1;fillColor=#fff2cc;gradientColor=#ffd966;strokeColor=#d6b656;" parent="WIyWlLk6GJQsqaUBKTNV-1" vertex="1">
          <mxGeometry x="480" y="110" width="100" height="52" as="geometry">
            <mxRectangle x="550" y="140" width="160" height="26" as="alternateBounds" />
          </mxGeometry>
        </mxCell>
        <mxCell id="XWS5cyPxn0b6OnyD6pv9-11" value="5y" style="text;align=center;verticalAlign=top;spacingLeft=4;spacingRight=4;overflow=hidden;rotatable=0;points=[[0,0.5],[1,0.5]];portConstraint=eastwest;" parent="XWS5cyPxn0b6OnyD6pv9-10" vertex="1">
          <mxGeometry y="26" width="100" height="26" as="geometry" />
        </mxCell>
        <mxCell id="XWS5cyPxn0b6OnyD6pv9-44" style="edgeStyle=orthogonalEdgeStyle;rounded=0;orthogonalLoop=1;jettySize=auto;html=1;entryX=0;entryY=0.5;entryDx=0;entryDy=0;" parent="WIyWlLk6GJQsqaUBKTNV-1" source="XWS5cyPxn0b6OnyD6pv9-13" target="XWS5cyPxn0b6OnyD6pv9-5" edge="1">
          <mxGeometry relative="1" as="geometry" />
        </mxCell>
        <mxCell id="XWS5cyPxn0b6OnyD6pv9-13" value="Side" style="swimlane;fontStyle=0;align=center;verticalAlign=top;childLayout=stackLayout;horizontal=1;startSize=26;horizontalStack=0;resizeParent=1;resizeLast=0;collapsible=1;marginBottom=0;rounded=0;shadow=0;strokeWidth=1;fillColor=#fff2cc;gradientColor=#ffd966;strokeColor=#d6b656;" parent="WIyWlLk6GJQsqaUBKTNV-1" vertex="1">
          <mxGeometry x="60" y="257" width="110" height="52" as="geometry">
            <mxRectangle x="550" y="140" width="160" height="26" as="alternateBounds" />
          </mxGeometry>
        </mxCell>
        <mxCell id="XWS5cyPxn0b6OnyD6pv9-14" value="Buyer / Seller" style="text;align=center;verticalAlign=top;spacingLeft=4;spacingRight=4;overflow=hidden;rotatable=0;points=[[0,0.5],[1,0.5]];portConstraint=eastwest;" parent="XWS5cyPxn0b6OnyD6pv9-13" vertex="1">
          <mxGeometry y="26" width="110" height="26" as="geometry" />
        </mxCell>
        <mxCell id="9kKB5E8LDzVK6SuMPjvg-6" style="edgeStyle=orthogonalEdgeStyle;rounded=0;orthogonalLoop=1;jettySize=auto;html=1;entryX=1;entryY=0.5;entryDx=0;entryDy=0;" edge="1" parent="WIyWlLk6GJQsqaUBKTNV-1" source="XWS5cyPxn0b6OnyD6pv9-15" target="XWS5cyPxn0b6OnyD6pv9-4">
          <mxGeometry relative="1" as="geometry">
            <Array as="points">
              <mxPoint x="430" y="66" />
              <mxPoint x="430" y="231" />
            </Array>
          </mxGeometry>
        </mxCell>
        <mxCell id="XWS5cyPxn0b6OnyD6pv9-15" value="start_date" style="swimlane;fontStyle=0;align=center;verticalAlign=top;childLayout=stackLayout;horizontal=1;startSize=26;horizontalStack=0;resizeParent=1;resizeLast=0;collapsible=1;marginBottom=0;rounded=0;shadow=0;strokeWidth=1;fillColor=#fff2cc;gradientColor=#ffd966;strokeColor=#d6b656;" parent="WIyWlLk6GJQsqaUBKTNV-1" vertex="1">
          <mxGeometry x="480" y="40" width="100" height="52" as="geometry">
            <mxRectangle x="550" y="140" width="160" height="26" as="alternateBounds" />
          </mxGeometry>
        </mxCell>
        <mxCell id="XWS5cyPxn0b6OnyD6pv9-16" value="2024-01-01" style="text;align=center;verticalAlign=top;spacingLeft=4;spacingRight=4;overflow=hidden;rotatable=0;points=[[0,0.5],[1,0.5]];portConstraint=eastwest;" parent="XWS5cyPxn0b6OnyD6pv9-15" vertex="1">
          <mxGeometry y="26" width="100" height="26" as="geometry" />
        </mxCell>
        <mxCell id="XWS5cyPxn0b6OnyD6pv9-19" style="edgeStyle=orthogonalEdgeStyle;rounded=0;orthogonalLoop=1;jettySize=auto;html=1;entryX=0;entryY=0.25;entryDx=0;entryDy=0;fillColor=#0050ef;strokeColor=#001DBC;" parent="WIyWlLk6GJQsqaUBKTNV-1" source="XWS5cyPxn0b6OnyD6pv9-20" target="XWS5cyPxn0b6OnyD6pv9-7" edge="1">
          <mxGeometry relative="1" as="geometry" />
        </mxCell>
        <mxCell id="XWS5cyPxn0b6OnyD6pv9-74" style="edgeStyle=orthogonalEdgeStyle;rounded=0;orthogonalLoop=1;jettySize=auto;html=1;entryX=0;entryY=0.25;entryDx=0;entryDy=0;fillColor=#0050ef;strokeColor=#001DBC;" parent="WIyWlLk6GJQsqaUBKTNV-1" source="XWS5cyPxn0b6OnyD6pv9-20" target="XWS5cyPxn0b6OnyD6pv9-8" edge="1">
          <mxGeometry relative="1" as="geometry" />
        </mxCell>
        <mxCell id="9kKB5E8LDzVK6SuMPjvg-13" style="edgeStyle=orthogonalEdgeStyle;rounded=0;orthogonalLoop=1;jettySize=auto;html=1;entryX=0;entryY=0.25;entryDx=0;entryDy=0;fillColor=#0050ef;strokeColor=#001DBC;" edge="1" parent="WIyWlLk6GJQsqaUBKTNV-1" source="XWS5cyPxn0b6OnyD6pv9-20" target="9kKB5E8LDzVK6SuMPjvg-9">
          <mxGeometry relative="1" as="geometry" />
        </mxCell>
        <mxCell id="XWS5cyPxn0b6OnyD6pv9-20" value="DiscountCurve" style="swimlane;fontStyle=0;align=center;verticalAlign=top;childLayout=stackLayout;horizontal=1;startSize=26;horizontalStack=0;resizeParent=1;resizeLast=0;collapsible=1;marginBottom=0;rounded=0;shadow=0;strokeWidth=1;fillColor=#0050ef;strokeColor=#001DBC;fontColor=#ffffff;" parent="WIyWlLk6GJQsqaUBKTNV-1" vertex="1">
          <mxGeometry x="20" y="390" width="130" height="52" as="geometry">
            <mxRectangle x="550" y="140" width="160" height="26" as="alternateBounds" />
          </mxGeometry>
        </mxCell>
        <mxCell id="XWS5cyPxn0b6OnyD6pv9-21" value="..." style="text;align=center;verticalAlign=top;spacingLeft=4;spacingRight=4;overflow=hidden;rotatable=0;points=[[0,0.5],[1,0.5]];portConstraint=eastwest;" parent="XWS5cyPxn0b6OnyD6pv9-20" vertex="1">
          <mxGeometry y="26" width="130" height="26" as="geometry" />
        </mxCell>
        <mxCell id="XWS5cyPxn0b6OnyD6pv9-23" value="NPV premium" style="ellipse;whiteSpace=wrap;html=1;align=center;fillColor=#d5e8d4;gradientColor=#97d077;strokeColor=#82b366;" parent="WIyWlLk6GJQsqaUBKTNV-1" vertex="1">
          <mxGeometry x="480" y="356" width="100" height="46" as="geometry" />
        </mxCell>
        <mxCell id="XWS5cyPxn0b6OnyD6pv9-25" style="edgeStyle=orthogonalEdgeStyle;rounded=0;orthogonalLoop=1;jettySize=auto;html=1;entryX=0;entryY=0.5;entryDx=0;entryDy=0;exitX=1.04;exitY=-0.115;exitDx=0;exitDy=0;exitPerimeter=0;" parent="WIyWlLk6GJQsqaUBKTNV-1" source="XWS5cyPxn0b6OnyD6pv9-27" target="XWS5cyPxn0b6OnyD6pv9-2" edge="1">
          <mxGeometry relative="1" as="geometry">
            <Array as="points">
              <mxPoint x="200" y="115" />
              <mxPoint x="200" y="205" />
            </Array>
          </mxGeometry>
        </mxCell>
        <mxCell id="XWS5cyPxn0b6OnyD6pv9-26" value="nominal" style="swimlane;fontStyle=0;align=center;verticalAlign=top;childLayout=stackLayout;horizontal=1;startSize=26;horizontalStack=0;resizeParent=1;resizeLast=0;collapsible=1;marginBottom=0;rounded=0;shadow=0;strokeWidth=1;fillColor=#fff2cc;gradientColor=#ffd966;strokeColor=#d6b656;" parent="WIyWlLk6GJQsqaUBKTNV-1" vertex="1">
          <mxGeometry x="65" y="92" width="100" height="52" as="geometry">
            <mxRectangle x="550" y="140" width="160" height="26" as="alternateBounds" />
          </mxGeometry>
        </mxCell>
        <mxCell id="XWS5cyPxn0b6OnyD6pv9-27" value="1000000" style="text;align=center;verticalAlign=top;spacingLeft=4;spacingRight=4;overflow=hidden;rotatable=0;points=[[0,0.5],[1,0.5]];portConstraint=eastwest;" parent="XWS5cyPxn0b6OnyD6pv9-26" vertex="1">
          <mxGeometry y="26" width="100" height="26" as="geometry" />
        </mxCell>
        <mxCell id="9kKB5E8LDzVK6SuMPjvg-4" style="edgeStyle=orthogonalEdgeStyle;rounded=0;orthogonalLoop=1;jettySize=auto;html=1;entryX=0;entryY=0.5;entryDx=0;entryDy=0;" edge="1" parent="WIyWlLk6GJQsqaUBKTNV-1" source="XWS5cyPxn0b6OnyD6pv9-29" target="9kKB5E8LDzVK6SuMPjvg-2">
          <mxGeometry relative="1" as="geometry">
            <Array as="points">
              <mxPoint x="180" y="206" />
              <mxPoint x="180" y="257" />
            </Array>
          </mxGeometry>
        </mxCell>
        <mxCell id="XWS5cyPxn0b6OnyD6pv9-29" value="spread" style="swimlane;fontStyle=0;align=center;verticalAlign=top;childLayout=stackLayout;horizontal=1;startSize=26;horizontalStack=0;resizeParent=1;resizeLast=0;collapsible=1;marginBottom=0;rounded=0;shadow=0;strokeWidth=1;fillColor=#fff2cc;gradientColor=#ffd966;strokeColor=#d6b656;" parent="WIyWlLk6GJQsqaUBKTNV-1" vertex="1">
          <mxGeometry x="75" y="180" width="80" height="52" as="geometry">
            <mxRectangle x="550" y="140" width="160" height="26" as="alternateBounds" />
          </mxGeometry>
        </mxCell>
        <mxCell id="XWS5cyPxn0b6OnyD6pv9-30" value="0.035" style="text;align=center;verticalAlign=top;spacingLeft=4;spacingRight=4;overflow=hidden;rotatable=0;points=[[0,0.5],[1,0.5]];portConstraint=eastwest;" parent="XWS5cyPxn0b6OnyD6pv9-29" vertex="1">
          <mxGeometry y="26" width="80" height="26" as="geometry" />
        </mxCell>
        <mxCell id="XWS5cyPxn0b6OnyD6pv9-37" value="NPV def." style="ellipse;whiteSpace=wrap;html=1;align=center;fillColor=#d5e8d4;gradientColor=#97d077;strokeColor=#82b366;" parent="WIyWlLk6GJQsqaUBKTNV-1" vertex="1">
          <mxGeometry x="480" y="442" width="100" height="46" as="geometry" />
        </mxCell>
        <mxCell id="XWS5cyPxn0b6OnyD6pv9-39" value="NPV" style="ellipse;whiteSpace=wrap;html=1;align=center;fillColor=#d5e8d4;gradientColor=#97d077;strokeColor=#82b366;" parent="WIyWlLk6GJQsqaUBKTNV-1" vertex="1">
          <mxGeometry x="480" y="542" width="100" height="46" as="geometry" />
        </mxCell>
        <mxCell id="9kKB5E8LDzVK6SuMPjvg-8" style="edgeStyle=orthogonalEdgeStyle;rounded=0;orthogonalLoop=1;jettySize=auto;html=1;entryX=1;entryY=0.5;entryDx=0;entryDy=0;" edge="1" parent="WIyWlLk6GJQsqaUBKTNV-1" source="XWS5cyPxn0b6OnyD6pv9-47" target="XWS5cyPxn0b6OnyD6pv9-4">
          <mxGeometry relative="1" as="geometry">
            <Array as="points">
              <mxPoint x="430" y="206" />
              <mxPoint x="430" y="231" />
            </Array>
          </mxGeometry>
        </mxCell>
        <mxCell id="XWS5cyPxn0b6OnyD6pv9-47" value="frequency" style="swimlane;fontStyle=0;align=center;verticalAlign=top;childLayout=stackLayout;horizontal=1;startSize=26;horizontalStack=0;resizeParent=1;resizeLast=0;collapsible=1;marginBottom=0;rounded=0;shadow=0;strokeWidth=1;fillColor=#fff2cc;gradientColor=#ffd966;strokeColor=#d6b656;" parent="WIyWlLk6GJQsqaUBKTNV-1" vertex="1">
          <mxGeometry x="480" y="180" width="100" height="52" as="geometry">
            <mxRectangle x="550" y="140" width="160" height="26" as="alternateBounds" />
          </mxGeometry>
        </mxCell>
        <mxCell id="XWS5cyPxn0b6OnyD6pv9-48" value="3m" style="text;align=center;verticalAlign=top;spacingLeft=4;spacingRight=4;overflow=hidden;rotatable=0;points=[[0,0.5],[1,0.5]];portConstraint=eastwest;" parent="XWS5cyPxn0b6OnyD6pv9-47" vertex="1">
          <mxGeometry y="26" width="100" height="26" as="geometry" />
        </mxCell>
        <mxCell id="XWS5cyPxn0b6OnyD6pv9-76" style="edgeStyle=orthogonalEdgeStyle;rounded=0;orthogonalLoop=1;jettySize=auto;html=1;entryX=0;entryY=0.75;entryDx=0;entryDy=0;strokeColor=#FF0000;" parent="WIyWlLk6GJQsqaUBKTNV-1" source="XWS5cyPxn0b6OnyD6pv9-53" target="XWS5cyPxn0b6OnyD6pv9-8" edge="1">
          <mxGeometry relative="1" as="geometry" />
        </mxCell>
        <mxCell id="XWS5cyPxn0b6OnyD6pv9-77" style="edgeStyle=orthogonalEdgeStyle;rounded=0;orthogonalLoop=1;jettySize=auto;html=1;entryX=0;entryY=0.75;entryDx=0;entryDy=0;strokeColor=#FF3333;" parent="WIyWlLk6GJQsqaUBKTNV-1" source="XWS5cyPxn0b6OnyD6pv9-53" target="XWS5cyPxn0b6OnyD6pv9-9" edge="1">
          <mxGeometry relative="1" as="geometry" />
        </mxCell>
        <mxCell id="9kKB5E8LDzVK6SuMPjvg-14" style="edgeStyle=orthogonalEdgeStyle;rounded=0;orthogonalLoop=1;jettySize=auto;html=1;entryX=0;entryY=0.75;entryDx=0;entryDy=0;strokeColor=#FF0000;" edge="1" parent="WIyWlLk6GJQsqaUBKTNV-1" source="XWS5cyPxn0b6OnyD6pv9-53" target="9kKB5E8LDzVK6SuMPjvg-9">
          <mxGeometry relative="1" as="geometry" />
        </mxCell>
        <mxCell id="XWS5cyPxn0b6OnyD6pv9-53" value="CreditCurve" style="swimlane;fontStyle=0;align=center;verticalAlign=top;childLayout=stackLayout;horizontal=1;startSize=26;horizontalStack=0;resizeParent=1;resizeLast=0;collapsible=1;marginBottom=0;rounded=0;shadow=0;strokeWidth=1;fillColor=#e51400;strokeColor=#B20000;fontColor=#ffffff;" parent="WIyWlLk6GJQsqaUBKTNV-1" vertex="1">
          <mxGeometry x="20" y="497" width="130" height="52" as="geometry">
            <mxRectangle x="550" y="140" width="160" height="26" as="alternateBounds" />
          </mxGeometry>
        </mxCell>
        <mxCell id="XWS5cyPxn0b6OnyD6pv9-54" value="..." style="text;align=center;verticalAlign=top;spacingLeft=4;spacingRight=4;overflow=hidden;rotatable=0;points=[[0,0.5],[1,0.5]];portConstraint=eastwest;" parent="XWS5cyPxn0b6OnyD6pv9-53" vertex="1">
          <mxGeometry y="26" width="130" height="26" as="geometry" />
        </mxCell>
        <mxCell id="XWS5cyPxn0b6OnyD6pv9-65" style="edgeStyle=orthogonalEdgeStyle;rounded=0;orthogonalLoop=1;jettySize=auto;html=1;entryX=0;entryY=0.5;entryDx=0;entryDy=0;" parent="WIyWlLk6GJQsqaUBKTNV-1" source="XWS5cyPxn0b6OnyD6pv9-7" target="XWS5cyPxn0b6OnyD6pv9-23" edge="1">
          <mxGeometry relative="1" as="geometry" />
        </mxCell>
        <mxCell id="XWS5cyPxn0b6OnyD6pv9-66" style="edgeStyle=orthogonalEdgeStyle;rounded=0;orthogonalLoop=1;jettySize=auto;html=1;entryX=0;entryY=0.5;entryDx=0;entryDy=0;" parent="WIyWlLk6GJQsqaUBKTNV-1" source="XWS5cyPxn0b6OnyD6pv9-8" target="XWS5cyPxn0b6OnyD6pv9-37" edge="1">
          <mxGeometry relative="1" as="geometry" />
        </mxCell>
        <mxCell id="XWS5cyPxn0b6OnyD6pv9-67" style="edgeStyle=orthogonalEdgeStyle;rounded=0;orthogonalLoop=1;jettySize=auto;html=1;entryX=0;entryY=0.5;entryDx=0;entryDy=0;" parent="WIyWlLk6GJQsqaUBKTNV-1" source="XWS5cyPxn0b6OnyD6pv9-9" target="XWS5cyPxn0b6OnyD6pv9-39" edge="1">
          <mxGeometry relative="1" as="geometry" />
        </mxCell>
        <mxCell id="XWS5cyPxn0b6OnyD6pv9-75" style="edgeStyle=orthogonalEdgeStyle;rounded=0;orthogonalLoop=1;jettySize=auto;html=1;entryX=0.006;entryY=0.318;entryDx=0;entryDy=0;entryPerimeter=0;fillColor=#0050ef;strokeColor=#001DBC;" parent="WIyWlLk6GJQsqaUBKTNV-1" source="XWS5cyPxn0b6OnyD6pv9-20" target="XWS5cyPxn0b6OnyD6pv9-9" edge="1">
          <mxGeometry relative="1" as="geometry" />
        </mxCell>
        <mxCell id="9kKB5E8LDzVK6SuMPjvg-5" style="edgeStyle=orthogonalEdgeStyle;rounded=0;orthogonalLoop=1;jettySize=auto;html=1;entryX=1;entryY=0.5;entryDx=0;entryDy=0;" edge="1" parent="WIyWlLk6GJQsqaUBKTNV-1" source="9kKB5E8LDzVK6SuMPjvg-0" target="9kKB5E8LDzVK6SuMPjvg-3">
          <mxGeometry relative="1" as="geometry" />
        </mxCell>
        <mxCell id="9kKB5E8LDzVK6SuMPjvg-0" value="recovery" style="swimlane;fontStyle=0;align=center;verticalAlign=top;childLayout=stackLayout;horizontal=1;startSize=26;horizontalStack=0;resizeParent=1;resizeLast=0;collapsible=1;marginBottom=0;rounded=0;shadow=0;strokeWidth=1;fillColor=#fff2cc;gradientColor=#ffd966;strokeColor=#d6b656;" vertex="1" parent="WIyWlLk6GJQsqaUBKTNV-1">
          <mxGeometry x="480" y="250" width="100" height="52" as="geometry">
            <mxRectangle x="550" y="140" width="160" height="26" as="alternateBounds" />
          </mxGeometry>
        </mxCell>
        <mxCell id="9kKB5E8LDzVK6SuMPjvg-1" value="40%" style="text;align=center;verticalAlign=top;spacingLeft=4;spacingRight=4;overflow=hidden;rotatable=0;points=[[0,0.5],[1,0.5]];portConstraint=eastwest;" vertex="1" parent="9kKB5E8LDzVK6SuMPjvg-0">
          <mxGeometry y="26" width="100" height="26" as="geometry" />
        </mxCell>
        <mxCell id="9kKB5E8LDzVK6SuMPjvg-10" value="breakeven rate" style="ellipse;whiteSpace=wrap;html=1;align=center;fillColor=#d5e8d4;gradientColor=#97d077;strokeColor=#82b366;" vertex="1" parent="WIyWlLk6GJQsqaUBKTNV-1">
          <mxGeometry x="480" y="657" width="100" height="46" as="geometry" />
        </mxCell>
        <mxCell id="9kKB5E8LDzVK6SuMPjvg-11" style="edgeStyle=orthogonalEdgeStyle;rounded=0;orthogonalLoop=1;jettySize=auto;html=1;entryX=0;entryY=0.5;entryDx=0;entryDy=0;" edge="1" parent="WIyWlLk6GJQsqaUBKTNV-1" source="9kKB5E8LDzVK6SuMPjvg-9" target="9kKB5E8LDzVK6SuMPjvg-10">
          <mxGeometry relative="1" as="geometry" />
        </mxCell>
        <mxCell id="9kKB5E8LDzVK6SuMPjvg-12" style="edgeStyle=orthogonalEdgeStyle;rounded=0;orthogonalLoop=1;jettySize=auto;html=1;entryX=0;entryY=0.683;entryDx=0;entryDy=0;entryPerimeter=0;fillColor=#e51400;strokeColor=#FF0000;" edge="1" parent="WIyWlLk6GJQsqaUBKTNV-1" source="XWS5cyPxn0b6OnyD6pv9-53" target="XWS5cyPxn0b6OnyD6pv9-7">
          <mxGeometry relative="1" as="geometry" />
        </mxCell>
      </root>
    </mxGraphModel>
  </diagram>
</mxfile>
